<?xml version="1.0" encoding="UTF-8" standalone="no"?><!DOCTYPE svg PUBLIC "-//W3C//DTD SVG 1.1//EN" "http://www.w3.org/Graphics/SVG/1.1/DTD/svg11.dtd"><svg width="100%" height="100%" viewBox="0 0 1075 909" version="1.1" xmlns="http://www.w3.org/2000/svg" xmlns:xlink="http://www.w3.org/1999/xlink" xml:space="preserve" xmlns:serif="http://www.serif.com/" style="fill-rule:evenodd;clip-rule:evenodd;stroke-linejoin:round;stroke-miterlimit:2;"><g id="layer1"><path id="path898" d="M850.903,310.326c-7.206,105.717 -23.783,218.067 -45.717,312.762c-0.472,1.211 -0.911,2.439 -1.2,3.717c-3.361,14.778 -6.767,28.594 -10.183,41.933c-1.589,5.944 -3.194,11.833 -4.833,17.572l0.206,0.056c-31.389,115.5 -65.428,172.017 -103.678,172.017l-1.05,0.017c-0.278,0 -0.55,0.011 -0.828,0.028l-0.456,0.011c-0.061,-0.011 -0.128,-0.022 -0.189,-0.033c-0.089,-0.022 -0.172,-0.05 -0.267,-0.072l-0.122,-0.061c-0.089,-0.044 -0.183,-0.094 -0.294,-0.161l-0.4,-0.272c-0.156,-0.111 -0.317,-0.228 -0.461,-0.339l-0.322,-0.267c-0.222,-0.194 -0.444,-0.406 -0.717,-0.683l-0.5,-0.483c-0.328,-0.361 -0.65,-0.733 -0.889,-1.028c-0.178,-0.217 -0.344,-0.417 -0.522,-0.622c-0.367,-0.478 -0.767,-1.044 -1.133,-1.583l-0.6,-0.956c-0.372,-0.572 -0.739,-1.167 -1.111,-1.806c-0.067,-0.122 -0.133,-0.233 -0.2,-0.35c-0.111,-0.2 -0.211,-0.394 -0.306,-0.567c-1.333,-2.417 -2.517,-4.928 -3.633,-7.661c-5.856,-14.406 -13.239,-66.872 -13.322,-75.378c0,-76.267 -63.756,-155.511 -91.161,-186.039c-39.595,-44.095 -101.089,-96.511 -144.095,-99.1c-16.322,-0.978 -29.567,15.15 -22.494,32.839c3.25,8.128 11.639,12.383 20.344,13.239c11.25,1.106 36.406,14.244 66.933,39.972c-39.167,29.9 -74.933,101.245 -74.933,196.411c0,10.183 0.394,20.528 1.178,30.739c1.272,16.639 -1.128,33.006 -6.95,47.322c-1.111,2.728 -2.294,5.239 -3.578,7.561c-0.117,0.217 -0.233,0.439 -0.356,0.656c-0.072,0.122 -0.144,0.25 -0.217,0.378c-0.356,0.617 -0.728,1.211 -1.144,1.861l-0.439,0.706c-0.461,0.683 -0.878,1.272 -1.244,1.75c-0.167,0.189 -0.317,0.372 -0.433,0.517c-0.322,0.394 -0.65,0.778 -0.978,1.139l-0.556,0.539c-0.222,0.222 -0.439,0.433 -0.622,0.594l-0.356,0.289c-0.156,0.122 -0.311,0.239 -0.561,0.411l-0.317,0.217c-0.1,0.061 -0.211,0.122 -0.356,0.189l-0.044,0.022c-0.094,0.022 -0.189,0.05 -0.278,0.078c-0.094,0.011 -0.189,0.028 -0.278,0.039l-0.367,-0.017c-0.35,-0.022 -0.7,-0.028 -1.056,-0.033l-1.039,-0.011c-21.417,0 -60.633,-45.117 -100.667,-172.278c-32.783,-104.122 -59.811,-243.984 -72.311,-374.123c-1.217,-12.678 -12.517,-21.994 -25.15,-20.744c-12.683,1.211 -21.967,12.478 -20.75,25.156c12.783,133.156 40.528,276.545 74.222,383.562c43.217,137.256 90.389,204.173 144.428,204.539c0.122,0 0.244,0.006 0.367,0.006c0.789,0.039 1.561,0.061 2.3,0.061c0.239,0 0.467,-0.006 0.694,-0.011c0.711,-0.006 1.428,-0.039 2.156,-0.078c1.05,-0.067 2.139,-0.172 3.283,-0.317c0.644,-0.061 1.25,-0.144 1.761,-0.239c0.45,-0.072 0.894,-0.167 1.339,-0.267c1.211,-0.239 2.456,-0.539 3.789,-0.917c0.55,-0.144 1.089,-0.3 1.589,-0.467c2.033,-0.656 3.922,-1.4 5.794,-2.283c0.417,-0.194 0.822,-0.406 1.233,-0.628c1.389,-0.706 2.75,-1.478 3.972,-2.25c0.583,-0.361 1.167,-0.756 1.789,-1.194c1.083,-0.739 2.15,-1.522 3.228,-2.383c0.583,-0.467 1.172,-0.95 1.789,-1.489c0.978,-0.844 1.933,-1.744 3,-2.794c0.444,-0.439 0.889,-0.878 1.361,-1.372c1.022,-1.078 2.017,-2.217 3.122,-3.55c0.267,-0.311 0.533,-0.628 0.8,-0.967c1.167,-1.467 2.328,-3.056 3.639,-4.994c0.283,-0.433 0.572,-0.889 0.861,-1.344l0.117,-0.189c0.7,-1.089 1.389,-2.206 2.061,-3.356c0.228,-0.367 0.456,-0.744 0.711,-1.194c0.233,-0.417 0.456,-0.833 0.672,-1.278c2.1,-3.85 4.033,-7.939 5.739,-12.144c8.494,-20.889 12.022,-44.467 10.211,-68.195c-0.694,-9.05 -1.044,-18.211 -1.044,-27.222c0,-102.395 44.167,-153.967 63.228,-163.945c3.506,3.667 7.033,7.439 10.589,11.4c49.689,55.339 79.361,113.372 79.361,155.222c0,11.911 7.906,71.056 16.706,92.733c1.7,4.178 3.611,8.228 5.739,12.139c0.217,0.433 0.45,0.878 0.717,1.361c0.222,0.389 0.439,0.75 0.678,1.122c0.672,1.161 1.361,2.267 2.006,3.278l0.172,0.267c0.289,0.456 0.572,0.911 0.939,1.467c1.228,1.817 2.394,3.406 3.556,4.872c0.261,0.328 0.511,0.628 0.783,0.939c1.061,1.294 2.094,2.467 3.178,3.611c0.433,0.461 0.878,0.9 1.433,1.444c0.956,0.944 1.917,1.844 2.933,2.722c0.583,0.506 1.167,0.989 1.767,1.467c1.056,0.85 2.128,1.633 3.25,2.406c0.583,0.406 1.161,0.8 1.667,1.111c1.322,0.833 2.706,1.617 4.072,2.306c0.4,0.222 0.811,0.433 1.25,0.633c1.839,0.872 3.722,1.617 5.717,2.261c0.506,0.167 1.017,0.317 1.544,0.456c1.217,0.344 2.444,0.644 3.65,0.894l1.389,0.283c0.628,0.111 1.261,0.2 1.906,0.261c1.122,0.15 2.239,0.256 3.328,0.322c0.717,0.039 1.428,0.072 2.017,0.078c0.272,0.006 0.55,0.006 0.817,0.006c0.8,0 1.589,-0.017 2.317,-0.056c0.1,0 0.206,-0.006 0.306,-0.006c38.117,-0.078 71.167,-24.789 98.222,-73.445c19.778,-35.567 37.895,-86.072 55.072,-153.506c27.861,-105.122 49.211,-239.25 57.717,-364.078c0.861,-12.706 -8.733,-23.711 -21.439,-24.572c-0.544,-0.039 -1.089,-0.061 -1.628,-0.061c-11.978,0 -22.111,9.339 -22.939,21.494m-455.24,548.057" style="fill:#fff;fill-rule:nonzero;"/><path id="path938" d="M948.789,79.518c0.789,1.467 9.572,17.467 24.583,36.328c-74.406,89.439 -215.623,209.089 -438.701,209.089c-245.695,0 -386.451,-140.461 -440.495,-209c8.328,-11.767 15.367,-25.189 19.439,-40.311l-45.589,-12.261c-4.911,18.239 -17.239,33.483 -29.756,44.995l-5.283,3.422c0.144,0.233 0.356,0.539 0.511,0.778c-15.006,12.706 -28.967,19.856 -29.233,19.989l10.517,21.133l10.45,21.161c1.389,-0.683 17.739,-8.978 36.278,-24.267c62.25,76.661 214.173,221.573 473.162,221.573c238.545,0 390.473,-125.967 471.706,-222.173c14.883,12.372 32.139,22.894 51.322,27.772l11.633,-45.756c-11.867,-3.017 -23.356,-10.183 -33.806,-19.044c0.022,-0.022 0.044,-0.05 0.056,-0.072l-0.883,-0.65c-21.206,-18.261 -37.978,-43.4 -44.395,-55.178l-41.517,22.472Z" style="fill:#fff;fill-rule:nonzero;"/><path id="path918" d="M661.029,10.013c-49.761,3 -99.684,27.361 -123.772,39.122c-1.206,0.583 -2.456,1.194 -3.656,1.778c-1.206,-0.583 -2.45,-1.194 -3.65,-1.778c-24.1,-11.761 -74.022,-36.122 -123.784,-39.122c-21.778,-3.372 -44.878,-5.972 -67.056,-2.928c-57.461,0.189 -101.961,15.733 -132.256,46.206c-28.639,28.811 -43.156,69.256 -43.156,120.222c0,13.578 11.744,24.411 25.628,22.911c11.717,-1.261 20.45,-11.894 20.489,-23.672c0.133,-37.978 10.133,-67.228 29.744,-86.945c21.506,-21.639 55.356,-32.611 100.606,-32.611l2.344,0l1.722,-0.261c16.933,-2.561 36.895,-0.161 55.945,2.817l1.161,0.183l1.172,0.061c40.572,2.161 85.139,23.811 106.828,34.395l-0.089,0.189c10.333,5.039 15.05,7.344 20.122,8.239l3.989,0.7l0.239,-0.044l0.239,0.044l3.983,-0.7c5.078,-0.894 9.789,-3.2 20.128,-8.239l-0.094,-0.189c21.7,-10.583 66.256,-32.233 106.828,-34.395l1.172,-0.061l1.161,-0.183c19.05,-2.978 39.017,-5.378 55.95,-2.817l1.717,0.261l2.35,0c45.25,0 79.095,10.972 100.6,32.611c19.611,19.717 29.617,48.967 29.744,86.945c0.044,11.778 8.778,22.411 20.494,23.672c13.883,1.5 25.628,-9.333 25.628,-22.911c0,-50.967 -14.522,-91.411 -43.161,-120.222c-30.294,-30.472 -74.789,-46.017 -132.25,-46.206c-6.911,-0.95 -13.911,-1.35 -20.933,-1.35c-15.517,0 -31.133,1.956 -46.128,4.278" style="fill:#fff;fill-rule:nonzero;"/></g></svg>